<?xml version="1.0" standalone="no"?>
<!DOCTYPE svg PUBLIC "-//W3C//DTD SVG 20010904//EN"
 "http://www.w3.org/TR/2001/REC-SVG-20010904/DTD/svg10.dtd">
<svg version="1.0" xmlns="http://www.w3.org/2000/svg"
 width="600.000000pt" height="1066.000000pt" viewBox="0 0 600.000000 1066.000000"
 preserveAspectRatio="xMidYMid meet">

<g transform="translate(0.000000,1066.000000) scale(0.100000,-0.100000)"
fill="#000000" stroke="none">
<path d="M0 9451 l0 -1208 27 -6 c16 -3 57 -9 93 -13 88 -9 111 -23 38 -24
-31 0 -80 -5 -108 -11 -44 -9 -51 -14 -48 -32 2 -13 13 -24 28 -28 l25 -7 -27
-1 c-28 -1 -28 -2 -28 -71 l0 -70 36 0 c19 0 44 -5 54 -10 10 -6 30 -11 44
-12 15 -1 26 -5 26 -9 0 -4 75 -10 168 -13 92 -3 187 -11 212 -16 25 -5 97
-15 160 -21 91 -8 124 -16 160 -36 30 -17 68 -27 114 -32 38 -3 71 -11 73 -17
5 -15 -99 -37 -140 -30 -29 5 -29 5 -7 -4 33 -13 200 -28 206 -19 2 4 23 5 46
2 44 -6 43 -9 22 42 -4 10 0 15 15 15 17 0 41 25 41 44 0 9 -70 24 -142 31
-38 4 -68 11 -68 15 0 16 43 35 110 48 82 16 89 17 123 7 17 -4 27 -3 27 3 0
6 -32 20 -70 32 -38 12 -70 26 -70 31 0 13 16 11 75 -7 48 -15 54 -15 86 0 38
18 63 53 74 105 8 38 20 53 48 64 11 4 21 16 24 27 3 11 9 20 14 20 5 0 9 16
9 35 0 19 5 35 10 35 6 0 10 6 10 14 0 8 7 22 15 30 9 9 19 38 22 66 3 27 10
50 14 50 5 0 9 7 9 15 0 8 4 15 10 15 5 0 12 16 16 35 4 25 13 37 29 41 17 4
26 18 35 49 7 24 21 52 31 61 11 9 19 26 19 37 0 10 16 35 37 56 34 34 36 40
35 94 -1 43 2 57 12 57 8 0 17 14 21 30 4 17 13 30 21 30 10 0 14 13 14 50 0
37 5 55 20 70 11 11 23 20 28 20 11 0 42 59 42 81 0 11 4 18 9 15 5 -4 12 12
16 34 4 22 11 40 16 40 5 0 9 9 9 20 0 11 6 20 13 20 9 0 19 22 26 55 7 30 17
55 22 55 5 0 9 16 9 36 0 21 4 33 10 29 6 -3 10 1 10 9 0 9 5 16 10 16 6 0 10
9 10 20 0 11 5 20 10 20 6 0 10 5 10 11 0 6 6 17 13 24 31 36 37 46 37 65 0
11 7 20 15 20 10 0 15 10 15 30 0 23 5 30 19 30 15 0 21 10 26 40 4 22 11 42
16 46 5 3 7 10 4 15 -4 5 10 26 30 47 20 20 43 51 51 69 8 18 22 37 33 42 10
6 24 24 31 41 7 17 26 38 41 46 16 8 29 21 29 29 0 8 4 15 9 15 5 0 13 9 16
20 4 11 11 18 16 15 5 -4 9 2 9 12 0 10 16 29 35 42 19 13 37 33 41 44 4 12
13 27 20 35 8 7 14 22 14 33 0 10 5 19 10 19 6 0 10 9 10 20 0 11 7 20 15 20
10 0 15 10 15 30 0 23 5 30 20 31 11 1 25 2 32 3 7 0 19 21 28 46 14 40 19 45
45 45 24 0 33 7 47 35 10 19 18 41 18 48 0 9 -293 12 -1430 12 l-1430 0 0
-1209z m455 -1466 c113 -4 177 -16 183 -34 4 -11 -17 -12 -119 -6 -225 13
-400 32 -412 45 -10 10 15 11 123 6 74 -4 176 -9 225 -11z"/>
<path d="M0 7925 c0 -8 6 -15 14 -15 7 0 19 -7 26 -15 13 -16 40 -21 40 -7 0
8 -62 52 -73 52 -4 0 -7 -7 -7 -15z"/>
<path d="M7 7889 c7 -7 15 -10 18 -7 3 3 -2 9 -12 12 -14 6 -15 5 -6 -5z"/>
<path d="M0 7790 c0 -14 7 -20 23 -19 12 0 16 3 9 6 -6 2 -10 8 -7 13 3 4 -2
10 -10 14 -10 4 -15 -1 -15 -14z"/>
<path d="M588 7803 c7 -3 16 -2 19 1 4 3 -2 6 -13 5 -11 0 -14 -3 -6 -6z"/>
<path d="M93 7693 c15 -2 37 -2 50 0 12 2 0 4 -28 4 -27 0 -38 -2 -22 -4z"/>
<path d="M285 7670 c17 -5 63 -13 103 -18 48 -7 78 -16 86 -27 9 -13 17 -14
40 -5 20 7 26 14 19 21 -11 11 -195 39 -248 38 l-30 -1 30 -8z"/>
<path d="M0 7622 c0 -29 0 -29 77 -36 128 -10 193 -8 193 8 0 16 -21 26 -56
26 -14 0 -33 4 -43 10 -10 5 -52 12 -94 15 l-77 6 0 -29z"/>
<path d="M460 7590 c0 -5 9 -14 19 -20 17 -8 20 -7 18 10 -1 20 -37 30 -37 10z"/>
<path d="M0 3570 l0 -3570 3000 0 3000 0 0 2160 c0 1613 -3 2161 -12 2166 -8
5 -9 2 -5 -10 6 -14 3 -17 -9 -12 -19 7 -60 -19 -45 -29 6 -3 16 -3 21 0 6 3
10 1 10 -5 0 -16 -30 -24 -42 -12 -8 8 -15 7 -25 -4 -19 -18 -33 -18 -33 2 0
8 5 12 10 9 6 -3 10 3 10 14 0 12 6 21 14 21 15 0 42 28 34 36 -3 3 -15 6 -27
7 -13 1 -21 8 -21 19 0 10 -4 18 -10 18 -5 0 -10 -5 -10 -11 0 -19 -28 -39
-45 -33 -9 4 -26 2 -38 -3 -58 -27 -75 -30 -127 -23 -44 7 -218 19 -277 20 -7
0 -13 8 -13 18 0 14 -2 15 -10 2 -8 -12 -10 -10 -10 10 l-1 25 -15 -29 c-9
-16 -19 -25 -23 -19 -3 5 -53 10 -111 10 -58 1 -136 5 -173 9 -64 6 -68 6 -65
-12 2 -10 -1 -19 -7 -18 -25 2 -74 27 -79 41 -5 13 -4 14 9 3 12 -10 16 -9 20
4 3 9 7 23 10 32 3 8 0 12 -5 9 -6 -3 -10 1 -10 9 0 9 -4 16 -10 16 -5 0 -10
-7 -10 -16 0 -16 -13 -16 -74 3 -12 3 -16 1 -12 -6 5 -7 -2 -11 -17 -11 -15 0
-28 9 -36 24 -7 13 -18 23 -25 21 -50 -13 -56 -18 -56 -49 0 -31 1 -31 43 -29
33 2 37 1 21 -6 -32 -14 -37 -29 -14 -36 29 -9 25 -23 -5 -17 -14 2 -25 8 -25
12 0 16 -51 17 -61 1 -7 -12 -8 -7 -3 18 4 23 3 31 -5 27 -7 -5 -11 5 -11 28
0 23 -4 35 -12 33 -7 -1 -14 11 -17 27 -3 16 -11 31 -17 33 -14 5 2 -121 20
-157 l12 -26 -64 8 c-36 4 -73 10 -83 13 -26 9 -67 -5 -72 -23 -3 -10 -5 -4
-6 11 -1 18 -6 27 -13 24 -11 -3 -18 -44 -20 -124 0 -13 -4 -23 -8 -23 -5 0
-11 -10 -14 -22 -2 -13 -3 0 -1 27 3 56 13 134 20 152 2 7 -2 16 -10 20 -11 7
-11 16 -1 58 14 53 20 57 42 28 8 -12 13 -13 14 -5 0 7 5 10 10 7 6 -3 15 -3
21 1 8 5 8 8 0 14 -9 5 -9 14 -1 35 14 38 5 44 -14 8 -12 -25 -20 -29 -45 -25
-22 3 -31 0 -31 -9 0 -31 -22 -89 -32 -86 -7 1 -10 -18 -9 -58 1 -53 0 -58
-12 -42 -16 20 -37 23 -37 5 0 -10 -3 -9 -9 1 -6 9 -19 12 -37 8 l-29 -6 28
12 c15 6 27 14 27 18 0 10 -39 19 -44 10 -3 -4 -27 -6 -53 -3 -26 2 -56 3 -65
3 -15 0 -15 3 -5 20 6 10 13 15 15 9 2 -5 17 -10 33 -10 35 0 43 16 53 103 l6
57 -44 0 c-46 0 -69 -16 -45 -31 10 -6 11 -9 2 -9 -9 0 -13 -16 -13 -45 0 -25
-4 -45 -10 -45 -5 0 -10 4 -10 10 0 5 -12 13 -26 16 -25 6 -26 10 -20 50 3 24
8 55 12 69 3 14 2 25 -3 25 -5 0 -10 -6 -11 -12 0 -7 -5 -31 -11 -53 -6 -22
-11 -56 -11 -75 0 -21 -4 -30 -8 -23 -4 7 -4 54 0 104 5 51 6 94 4 96 -2 2 -9
-25 -16 -61 -12 -62 -13 -65 -44 -68 -28 -3 -40 -21 -16 -24 6 -1 15 -2 21 -3
6 0 9 -10 6 -21 -3 -13 0 -20 9 -20 8 0 14 -4 14 -10 0 -5 -13 -7 -32 -3 -27
5 -30 4 -24 -12 5 -14 4 -16 -8 -6 -11 9 -15 8 -20 -4 -6 -17 29 -22 39 -5 3
6 18 10 32 10 25 0 26 0 8 -20 -10 -11 -24 -20 -32 -20 -7 0 -13 -8 -13 -19 0
-14 6 -17 28 -15 24 3 23 2 -6 -8 -29 -10 -33 -14 -27 -37 9 -37 12 -38 45 -6
26 25 45 25 21 -1 -5 -5 -11 -18 -13 -28 -1 -11 -12 -20 -23 -22 -11 -1 -37
-5 -57 -8 -21 -4 -38 -2 -38 3 0 13 -120 70 -136 64 -23 -8 -18 59 6 85 11 12
20 25 20 29 0 5 19 9 43 11 49 2 134 29 102 33 -58 6 -135 4 -135 -3 0 -4 -4
-8 -10 -8 -5 0 -7 6 -4 14 3 9 -1 13 -12 13 -13 -2 -18 8 -21 47 -3 27 -8 67
-13 90 -8 39 -9 38 -8 -20 1 -33 -2 -66 -6 -72 -4 -7 -4 -16 -1 -22 3 -5 -5
-21 -20 -34 -24 -23 -25 -24 -5 -29 18 -5 20 -12 18 -64 -1 -32 -7 -61 -12
-65 -14 -10 -36 10 -30 27 6 16 -45 29 -90 23 -43 -5 -31 -23 18 -26 34 -2 44
-6 39 -18 -3 -7 -15 -14 -28 -14 -13 0 -25 -7 -29 -15 -3 -8 -16 -15 -30 -15
-14 0 -37 -5 -52 -10 -18 -7 -30 -7 -40 0 -9 8 -18 8 -33 0 -18 -9 -21 -8 -21
10 0 12 7 20 18 21 10 0 3 7 -18 16 -35 16 -35 16 -10 23 l25 7 -27 8 c-31 8
-34 15 -16 33 9 9 5 12 -21 12 -19 0 -30 -4 -26 -10 4 -6 11 -8 16 -5 15 10
10 -33 -7 -49 -8 -9 -27 -16 -41 -16 -48 0 -17 -25 35 -28 29 -2 52 -6 52 -11
0 -13 -74 -35 -120 -36 -25 -1 -60 -4 -77 -9 -32 -7 -33 -6 -33 23 0 26 4 31
25 31 14 0 25 -4 25 -9 0 -11 46 -20 71 -14 18 5 19 6 2 18 -10 7 -22 11 -27
8 -4 -3 -11 0 -15 6 -4 6 -24 12 -45 13 -20 1 -39 5 -42 10 -9 14 -22 9 -27
-9 -4 -16 -5 -16 -6 -1 -1 21 -39 34 -54 19 -16 -16 -43 -14 -61 5 -25 24 -19
39 22 58 35 18 36 19 15 27 -13 5 -23 15 -23 22 0 8 -7 20 -15 27 -27 22 -18
40 20 40 34 0 46 12 25 25 -5 3 -10 1 -10 -4 0 -6 -13 -11 -30 -11 -24 0 -30
4 -30 20 0 12 -20 40 -45 64 -45 45 -78 57 -185 72 -25 3 -49 12 -53 20 -4 8
-14 14 -21 14 -7 0 -21 9 -31 20 -18 19 -17 20 6 20 19 0 21 2 9 10 -21 14
-53 13 -44 -2 8 -13 -12 -3 -39 20 -9 8 -17 12 -17 8 0 -4 -15 9 -34 27 -19
19 -47 37 -63 40 -15 3 -40 9 -55 12 -38 10 -127 -19 -189 -62 -30 -20 -56
-40 -58 -45 -2 -5 -14 -13 -27 -18 -33 -13 -30 -25 13 -47 20 -10 38 -22 40
-28 1 -5 -34 -28 -80 -49 -113 -55 -118 -60 -111 -110 4 -23 11 -46 16 -53 15
-18 1 -31 -27 -25 -29 5 -33 18 -7 25 9 3 -22 5 -69 6 -64 1 -90 5 -99 16 -10
13 -9 15 9 15 11 0 21 5 21 10 0 6 -15 10 -32 10 -57 0 -59 6 -36 110 11 52
27 100 35 107 13 10 12 14 -4 30 -19 19 -19 19 -30 -3 -7 -15 -7 -24 -1 -26
13 -5 0 -68 -13 -68 -6 0 -8 -9 -4 -19 9 -28 -14 -108 -31 -108 -8 0 -14 4
-14 8 0 4 -26 6 -57 3 -38 -2 -49 -1 -33 4 l25 8 -25 7 c-24 6 -24 7 -6 20 34
25 13 46 -51 50 -32 2 -9 4 55 5 103 2 136 11 96 26 -25 10 -150 7 -179 -4
-23 -9 -26 -8 -21 7 3 10 8 31 12 46 5 22 10 26 27 21 17 -5 19 -3 13 12 -26
64 -13 114 29 114 35 0 52 -110 23 -147 -8 -9 -6 -13 6 -13 12 0 16 10 16 40
0 22 3 39 8 38 6 -3 14 8 11 15 -6 13 -5 67 1 57 11 -19 29 -3 23 20 -3 11
-14 20 -24 20 -11 0 -19 4 -19 9 0 14 25 20 41 10 8 -5 21 -9 29 -9 10 1 8 7
-9 20 -13 11 -18 20 -12 20 7 0 9 5 5 11 -4 7 -22 9 -45 6 -22 -3 -37 -1 -33
4 3 5 -6 9 -19 9 -20 0 -24 -4 -20 -20 3 -12 0 -20 -7 -20 -7 0 -10 -7 -6 -16
4 -10 2 -13 -6 -8 -6 4 -17 -1 -25 -11 -15 -22 -17 -16 -3 19 5 14 16 26 25
26 8 0 15 5 15 10 0 10 -15 14 -35 10 -5 -1 -14 6 -21 14 -9 14 -12 12 -22 -9
-6 -14 -20 -25 -29 -25 -17 1 -16 2 1 15 11 8 16 18 13 22 -4 4 -13 1 -19 -5
-7 -7 -21 -12 -33 -12 -20 1 -20 1 -1 15 19 15 19 16 -6 19 -7 0 -14 9 -16 19
-3 15 2 17 36 11 22 -3 42 -2 45 3 4 6 -4 8 -17 6 -13 -3 -27 0 -30 6 -4 6
-19 11 -34 12 l-27 1 25 8 c51 16 84 10 109 -20 25 -30 51 -30 51 1 0 10 5 19
10 19 6 0 5 6 -2 14 -11 13 -15 13 -25 -2 -7 -8 -13 -11 -13 -6 0 5 -35 11
-77 13 -43 1 -80 7 -81 12 -2 5 -13 14 -24 20 -18 9 -18 8 -9 -10 6 -11 11
-24 11 -30 0 -14 -57 -14 -65 -1 -3 6 0 10 9 10 15 0 15 28 1 63 -6 15 -1 17
36 17 42 0 79 13 68 24 -2 3 -25 7 -49 10 -36 4 -39 4 -15 -3 27 -8 25 -9 -20
-10 -36 0 -57 5 -75 19 l-25 20 33 0 c20 0 31 4 27 10 -4 6 -15 8 -26 5 -11
-4 -19 -2 -19 6 0 8 13 10 40 6 22 -3 43 -1 46 4 3 5 -6 9 -20 9 -29 0 -36 20
-8 21 14 0 14 2 -3 9 -11 5 -15 9 -10 10 27 5 41 4 46 -4 4 -4 16 -3 27 3 12
6 73 11 145 11 68 0 127 3 131 8 4 4 15 7 24 8 10 1 28 2 41 3 42 2 14 14 -40
17 -29 2 -57 8 -62 13 -8 8 63 11 233 11 260 0 416 8 403 21 -11 10 -643 78
-733 79 -12 0 -12 2 -2 9 18 11 611 5 742 -8 275 -27 342 -32 346 -28 3 2 33
-2 67 -9 34 -7 77 -13 95 -14 17 0 32 -4 32 -10 0 -5 11 -10 25 -10 15 0 25
-6 25 -14 0 -8 6 -16 13 -19 8 -3 6 -9 -8 -20 -19 -15 -19 -16 -2 -23 23 -8
31 0 32 34 l0 27 93 0 92 0 1 35 2 35 6 -35 c3 -21 12 -36 21 -36 8 -1 21 -2
28 -3 21 -2 3 -21 -19 -21 -30 0 -20 -33 11 -36 14 -2 87 -5 163 -7 l137 -4 0
24 c0 16 -6 23 -20 23 -29 0 -24 17 7 25 15 3 30 10 33 15 3 4 16 0 29 -11 13
-10 18 -19 12 -19 -7 0 -9 -4 -6 -10 3 -5 1 -10 -4 -10 -6 0 -11 -8 -11 -17 0
-13 9 -19 36 -21 l36 -2 -7 41 c-5 29 -4 40 4 35 6 -4 11 -23 11 -42 0 -19 5
-34 10 -34 6 0 10 5 10 12 0 9 3 9 12 0 8 -8 48 -12 116 -12 97 0 103 1 91 17
-10 12 -6 11 16 -4 25 -18 56 -23 190 -33 88 -7 279 -25 425 -40 301 -33 460
-45 540 -42 62 3 310 -15 360 -25 31 -6 32 -7 15 -20 -11 -7 -27 -13 -38 -13
-10 0 -15 -4 -12 -10 8 -13 -202 -13 -293 -1 -37 6 -233 12 -437 15 -203 3
-396 10 -428 15 -31 6 -94 11 -139 12 -45 1 -98 6 -119 10 -21 5 -86 12 -144
17 -80 6 -105 5 -105 -5 0 -20 17 -25 113 -28 51 -2 128 -7 172 -10 44 -4 122
-8 172 -10 66 -3 102 -9 124 -22 25 -14 33 -15 36 -5 4 10 8 10 17 -2 7 -10
36 -17 86 -21 123 -10 231 -22 295 -34 33 -6 179 -15 324 -21 224 -9 266 -13
276 -26 7 -10 32 -19 65 -22 29 -3 64 -10 77 -17 l24 -12 -23 -7 c-13 -3 -57
-6 -98 -7 -64 0 -175 -13 -160 -18 3 -1 37 -3 75 -5 87 -4 196 -14 253 -22 37
-5 42 -4 42 12 1 17 2 17 13 3 14 -19 141 -44 205 -40 29 1 41 -2 37 -9 -3 -5
-18 -10 -33 -10 -16 0 -22 -4 -17 -9 6 -6 52 -13 103 -17 94 -7 110 -13 50
-19 -18 -2 -46 -7 -63 -11 -26 -6 -27 -8 -10 -15 11 -4 63 -8 116 -8 101 -1
151 -13 183 -43 11 -10 32 -18 48 -18 l28 0 0 581 c0 576 0 580 -20 574 -13
-4 -22 -1 -26 9 -10 25 -24 18 -25 -11 0 -24 -2 -25 -8 -8 -8 19 -8 19 -19 0
-10 -18 -11 -16 -9 12 1 18 6 33 10 33 5 0 5 5 2 10 -4 6 -11 8 -16 5 -12 -8
-11 16 1 35 8 12 13 13 27 2 31 -22 47 -26 51 -14 2 7 10 12 18 12 12 0 14 87
14 584 0 458 -3 585 -12 589 -10 4 -10 6 0 6 6 1 12 8 12 17 0 13 -5 12 -26
-5 -15 -12 -35 -21 -45 -21 -11 0 -28 -6 -39 -12 -16 -10 -24 -10 -39 -1 -15
9 -41 10 -102 3 -70 -8 -99 -18 -183 -61 -56 -28 -123 -59 -151 -69 -27 -10
-77 -30 -110 -45 -33 -15 -89 -36 -125 -47 -63 -20 -100 -26 -280 -48 -47 -6
-121 -20 -165 -31 -83 -22 -147 -30 -139 -17 3 4 -5 12 -16 18 -12 6 -20 21
-20 35 0 18 -5 25 -20 25 -11 0 -20 -3 -20 -8 0 -7 -54 -35 -75 -38 -6 -1 -28
-13 -49 -28 -21 -14 -45 -26 -53 -26 -19 0 -53 -20 -89 -53 -32 -29 -189 -91
-206 -81 -4 3 -23 1 -41 -5 -58 -18 -117 -21 -117 -5 0 18 -2 18 -63 -10 -72
-33 -90 -37 -186 -42 -62 -4 -86 -1 -92 8 -7 10 -9 10 -9 1 0 -7 -8 -13 -18
-13 -10 0 -24 6 -31 13 -10 10 -11 9 -6 -5 5 -13 2 -18 -9 -18 -9 0 -16 5 -16
11 0 5 -11 -2 -24 -18 -19 -22 -27 -25 -38 -16 -13 11 -58 8 -58 -4 0 -3 10
-13 22 -23 l22 -17 -24 -13 c-19 -10 -25 -10 -34 2 -6 9 -24 15 -40 14 -24 -1
-32 6 -49 37 -16 31 -17 41 -7 47 7 4 11 13 9 19 -3 7 -13 6 -33 -4 -16 -9
-36 -13 -43 -11 -7 3 -13 -1 -13 -8 0 -17 -29 -25 -54 -16 -14 4 -16 9 -8 14
7 4 16 5 21 2 5 -3 11 4 14 16 7 24 -3 41 -10 21 -8 -22 -35 -16 -28 6 4 15 1
18 -17 15 -82 -11 -98 -16 -98 -29 0 -28 -28 -43 -77 -40 -44 3 -48 6 -54 32
l-5 28 -8 -33 c-5 -21 -13 -32 -21 -28 -8 3 -11 -2 -8 -12 7 -30 -90 -66 -169
-63 -16 1 -28 6 -28 12 0 6 11 8 28 4 17 -3 40 0 57 9 16 8 32 13 37 10 12 -7
53 35 62 63 4 13 2 24 -5 29 -7 4 -9 3 -5 -4 3 -6 2 -13 -4 -17 -6 -3 -13 1
-16 9 -9 23 -27 20 -52 -9 -13 -14 -33 -25 -47 -25 -14 0 -25 -3 -25 -8 0 -12
-88 -57 -96 -49 -4 4 -13 -1 -19 -10 -9 -12 -28 -18 -59 -18 -25 -1 -49 -4
-52 -8 -4 -4 -27 -7 -51 -7 -25 0 -54 -5 -65 -11 -26 -14 -104 -24 -173 -23
-50 1 -62 3 -99 19 -13 6 -21 4 -24 -3 -2 -7 -12 -4 -25 9 -34 33 -79 48 -159
55 -74 6 -100 13 -223 59 -38 15 -81 29 -95 31 -13 3 -29 9 -35 14 -5 4 -38
18 -72 29 -34 12 -95 42 -135 68 -72 47 -193 97 -210 87 -4 -3 -8 0 -8 5 0 13
-67 43 -97 43 -12 0 -24 7 -27 14 -3 7 -20 20 -38 29 -18 8 -48 24 -66 35 -18
11 -36 19 -40 18 -4 -1 -20 4 -35 10 -16 7 -34 12 -40 12 -7 0 -41 16 -77 35
-117 63 -152 77 -200 80 -56 4 -288 51 -348 71 -23 8 -47 14 -52 14 -6 0 -10
-1291 -10 -3570z m5840 3484 c0 -17 22 -16 78 1 18 6 21 4 16 -8 -3 -9 -12
-13 -19 -11 -7 3 -16 1 -20 -5 -3 -6 -24 -11 -47 -11 -32 0 -39 3 -34 16 3 9
6 20 6 25 0 5 5 9 10 9 6 0 10 -7 10 -16z m-180 -14 c0 -5 -5 -10 -11 -10 -5
0 -7 5 -4 10 3 6 8 10 11 10 2 0 4 -4 4 -10z m55 -10 c-3 -5 -11 -10 -16 -10
-6 0 -7 5 -4 10 3 6 11 10 16 10 6 0 7 -4 4 -10z m35 -26 c0 -2 -7 -4 -15 -4
-8 0 -15 4 -15 10 0 5 7 7 15 4 8 -4 15 -8 15 -10z m-140 -18 c0 -3 -4 -8 -10
-11 -5 -3 -10 -1 -10 4 0 6 5 11 10 11 6 0 10 -2 10 -4z m45 -6 c-3 -5 -12
-10 -18 -10 -7 0 -6 4 3 10 19 12 23 12 15 0z m-90 -19 c-11 -18 -43 -32 -50
-22 -3 5 7 16 22 24 30 15 39 14 28 -2z m30 -11 c-3 -5 -12 -10 -18 -10 -7 0
-6 4 3 10 19 12 23 12 15 0z m-1069 -192 c-9 -5 -16 -16 -16 -23 0 -17 -16
-20 -25 -5 -11 17 6 51 28 59 27 10 38 -17 13 -31z m-76 -13 c0 -8 5 -15 10
-15 6 0 10 -4 10 -10 0 -5 -6 -10 -12 -10 -23 0 -39 16 -32 33 8 21 24 22 24
2z m-1391 -164 c11 -7 9 -11 -9 -21 -25 -13 -35 -8 -27 15 7 17 16 19 36 6z
m815 0 c6 -9 -16 -21 -40 -21 -20 0 -17 18 4 23 28 8 31 7 36 -2z m-689 -101
c3 -5 -1 -10 -10 -10 -9 0 -13 -4 -10 -10 3 -6 -1 -7 -9 -4 -9 3 -16 9 -16 13
0 21 34 29 45 11z m39 -16 c9 -22 8 -24 -9 -24 -8 0 -15 9 -15 20 0 24 15 27
24 4z m-94 -14 c0 -5 -5 -10 -11 -10 -5 0 -7 5 -4 10 3 6 8 10 11 10 2 0 4 -4
4 -10z m335 0 c3 -5 -1 -10 -9 -10 -9 0 -16 5 -16 10 0 6 4 10 9 10 6 0 13 -4
16 -10z m-152 -15 c7 -16 -8 -29 -23 -20 -10 6 -2 35 10 35 4 0 10 -7 13 -15z
m-773 -26 c0 -5 -5 -7 -11 -4 -6 4 -20 -2 -32 -13 -15 -14 -27 -18 -36 -13
-11 7 -7 13 15 25 34 18 64 21 64 5z m705 1 c3 -5 -1 -10 -9 -10 -9 0 -16 5
-16 10 0 6 4 10 9 10 6 0 13 -4 16 -10z m181 -408 c6 -28 24 -20 24 11 l1 22
12 -21 c7 -12 18 -19 25 -17 8 3 10 -2 6 -14 -5 -17 -5 -17 9 0 9 11 18 14 21
8 4 -6 14 -7 23 -4 9 4 19 -1 25 -11 5 -9 14 -13 20 -10 6 4 14 1 18 -5 5 -8
14 -1 28 23 12 20 25 36 31 36 14 0 21 -26 10 -37 -6 -6 -4 -10 6 -10 8 0 17
9 21 19 3 10 9 16 14 13 5 -3 12 0 16 6 4 7 12 1 20 -17 7 -17 13 -22 13 -13
1 18 31 35 31 19 0 -23 20 -7 29 23 9 28 9 26 6 -21 -3 -47 -2 -52 11 -41 13
10 17 10 25 -2 5 -8 9 -9 9 -3 0 5 7 19 16 30 15 18 15 18 9 -4 -7 -25 -10
-25 51 -7 12 3 25 16 29 28 7 20 8 19 12 -10 3 -25 9 -33 24 -33 17 0 25 16
20 43 -1 4 8 3 19 -3 11 -6 20 -20 20 -32 0 -16 3 -18 14 -9 11 9 17 8 29 -3
13 -13 16 -12 27 10 14 25 36 34 27 10 -3 -8 1 -17 9 -20 8 -3 14 -1 14 4 0 5
7 7 15 4 8 -4 15 -1 15 5 0 6 5 11 10 11 6 0 10 -9 10 -20 0 -29 17 -24 26 8
5 20 8 22 11 10 3 -11 13 -17 26 -15 16 1 22 -3 21 -15 -1 -10 2 -15 7 -12 5
3 9 13 9 22 0 15 2 15 10 2 8 -13 10 -13 10 1 0 9 9 27 20 40 l20 24 -10 -25
c-8 -17 -8 -33 -1 -50 6 -17 10 -19 10 -8 1 9 5 19 10 22 13 8 42 -4 36 -14
-3 -5 -1 -11 5 -15 5 -3 10 -2 10 4 0 6 14 17 30 26 17 9 30 12 30 7 0 -12 43
-9 52 3 5 6 8 5 8 -2 0 -9 10 -11 30 -7 25 5 31 3 38 -16 7 -19 10 -20 15 -7
4 10 13 14 22 11 12 -5 15 2 15 37 0 53 6 48 13 -11 3 -25 6 -47 6 -49 1 -2
10 4 20 13 11 10 24 15 30 12 5 -3 12 2 15 11 3 10 4 6 2 -10 -3 -23 -1 -25
12 -15 12 11 16 10 20 -1 3 -9 9 -4 18 15 8 19 13 23 13 12 1 -10 7 -17 14
-15 6 1 11 -4 10 -10 -2 -7 2 -13 7 -13 6 0 10 5 10 10 0 6 5 10 11 10 5 0 7
-4 4 -10 -3 -5 -1 -10 4 -10 6 0 11 7 11 16 0 14 2 13 17 -2 16 -15 17 -15 24
2 6 17 8 17 16 -5 l10 -25 15 30 c8 16 22 42 30 57 l16 28 7 -48 c6 -42 18
-62 35 -63 4 0 12 15 18 34 7 19 20 40 29 48 15 12 15 11 1 -12 -9 -14 -19
-36 -22 -50 l-7 -25 21 27 c19 25 23 26 36 13 9 -8 12 -19 9 -25 -3 -5 -1 -10
4 -10 6 0 11 8 11 18 0 9 5 24 11 32 9 13 10 13 8 0 -3 -31 1 -41 14 -33 19
12 45 14 52 3 11 -17 23 -11 34 18 10 26 11 25 5 -8 l-5 -35 21 24 20 23 0
-22 c0 -21 1 -22 25 -6 23 15 25 15 25 -1 1 -16 3 -15 19 5 25 28 29 28 43 -5
9 -22 12 -24 15 -11 4 16 6 16 19 3 20 -20 34 -19 34 3 0 9 8 26 17 37 9 11
14 14 11 5 -21 -61 -22 -58 30 -62 31 -2 54 2 61 10 17 17 30 15 26 -5 -2 -10
-4 -25 -4 -33 -1 -13 -2 -13 -11 0 -7 11 -10 6 -11 -20 0 -25 -2 -30 -8 -17
-4 10 -11 18 -16 16 -6 -1 -15 8 -21 20 -11 20 -12 21 -18 4 -7 -17 -8 -17
-21 1 -11 15 -15 16 -19 5 -25 -78 -24 -77 -26 -29 -1 34 -3 40 -9 25 -5 -11
-7 -23 -4 -27 2 -5 -3 -8 -11 -8 -8 0 -21 -8 -28 -18 -20 -28 -48 -24 -48 7
-1 22 -3 24 -13 11 -21 -25 -37 -22 -43 10 -8 38 -21 31 -18 -9 2 -37 -11 -41
-20 -6 -7 28 -26 34 -26 9 0 -11 -5 -14 -16 -10 -9 3 -21 3 -27 -1 -20 -12
-37 -12 -37 1 0 7 -12 11 -29 10 -22 -1 -31 3 -34 18 -4 12 -10 17 -17 13 -9
-6 -9 -9 -1 -15 7 -3 9 -14 5 -23 -7 -20 -26 -23 -23 -4 4 29 -2 48 -12 41 -7
-4 -9 -24 -5 -53 5 -42 4 -43 -5 -13 -5 18 -14 30 -19 27 -6 -4 -10 -1 -10 6
0 15 -14 2 -16 -14 0 -7 -2 -37 -4 -67 -4 -54 -4 -54 -9 20 -4 52 -10 74 -18
72 -7 -1 -13 3 -13 9 0 23 -27 -18 -37 -56 l-11 -40 -1 38 c-1 47 -26 50 -35
5 l-7 -33 -14 30 c-11 24 -14 26 -15 10 -2 -17 -3 -17 -9 4 -10 36 -31 39 -31
4 l-1 -28 -15 28 c-16 30 -34 36 -34 11 0 -8 5 -12 10 -9 6 4 10 -5 10 -19 0
-24 -2 -25 -20 -14 -11 7 -20 21 -20 30 0 10 -4 18 -10 18 -5 0 -10 -7 -10
-15 0 -21 -30 -19 -31 3 -1 32 -17 -19 -20 -63 l-2 -40 -6 45 c-5 36 -10 44
-23 42 -14 -2 -18 4 -19 25 -1 27 -1 27 -9 -5 -9 -38 -20 -54 -20 -29 0 9 -7
17 -15 17 -8 0 -15 6 -15 13 0 8 -4 6 -10 -3 -7 -14 -24 -16 -72 -11 -5 1 -8
10 -8 21 0 11 -4 20 -10 20 -12 0 -13 -27 -2 -34 4 -2 9 -23 10 -45 3 -37 1
-41 -20 -40 -16 1 -18 3 -6 6 18 4 21 43 3 43 -5 0 -11 11 -11 25 -1 13 -9 31
-18 40 -14 14 -16 14 -22 -10 -7 -27 -18 -32 -30 -13 -4 7 -3 8 4 4 7 -4 12
-1 12 9 0 9 -4 13 -10 10 -5 -3 -11 4 -11 17 -1 21 -17 -51 -22 -99 -1 -11 -5
-19 -9 -17 -3 2 -8 -2 -11 -8 -2 -7 -3 1 -2 17 1 17 5 38 9 47 4 9 6 25 3 35
-3 12 -5 10 -6 -8 -1 -31 -30 -36 -32 -5 -1 17 -2 18 -6 4 -5 -19 -33 -25 -33
-8 0 6 -5 10 -11 10 -6 0 -9 -18 -8 -47 2 -32 -1 -48 -10 -51 -9 -3 -11 2 -6
17 3 11 3 21 -2 22 -42 4 -54 7 -60 12 -3 4 -1 7 7 7 9 0 9 4 2 13 -5 6 -12
21 -15 32 -4 15 -5 13 -6 -7 -1 -19 -7 -28 -18 -29 -15 0 -15 -2 2 -9 17 -7
17 -9 3 -9 -37 -2 -34 -5 -37 44 -1 15 -7 25 -17 25 -9 0 -12 -5 -8 -12 4 -7
8 -22 9 -35 1 -20 -4 -23 -37 -23 -41 0 -43 -2 -28 -31 9 -16 7 -19 -8 -19
-15 0 -18 5 -14 25 4 23 1 25 -32 25 -32 0 -36 -3 -36 -25 0 -14 -5 -25 -11
-25 -6 0 -10 10 -9 23 4 39 -2 113 -7 95 -2 -10 -8 -18 -13 -18 -11 0 -21 30
-14 42 4 6 1 8 -7 6 -8 -3 -13 -11 -11 -17 4 -20 4 -26 3 -53 -1 -24 -5 -28
-31 -28 -20 0 -30 -5 -30 -15 0 -10 10 -15 30 -15 22 0 30 -5 29 -17 0 -11 -3
-13 -6 -5 -6 14 -63 17 -63 2 0 -5 -6 -8 -12 -5 -7 2 -55 6 -106 8 -101 5
-118 11 -81 26 13 5 18 10 11 10 -7 1 -10 6 -7 11 3 6 1 10 -4 10 -6 0 -11 10
-11 23 0 18 -2 19 -10 7 -9 -13 -11 -13 -20 0 -7 11 -10 7 -10 -17 0 -39 3
-49 13 -45 4 1 7 -2 7 -8 0 -11 -6 -12 -115 -10 -121 3 -130 5 -127 24 3 14
-3 17 -25 14 -28 -3 -29 -2 -32 45 -1 23 -23 22 -44 -3 -9 -11 -12 -20 -7 -20
6 0 10 -4 10 -10 0 -5 -7 -10 -15 -10 -8 0 -14 -3 -14 -7 3 -21 -3 -21 -21 -3
-12 12 -18 25 -15 30 4 6 -1 10 -9 10 -9 0 -16 5 -16 11 0 8 -4 8 -14 0 -11
-9 -15 -9 -18 1 -4 10 -8 10 -21 -1 -10 -7 -17 -10 -17 -5 0 4 -9 -2 -20 -14
-26 -28 -25 -32 8 -33 27 -2 27 -2 2 -6 -14 -3 -28 -10 -32 -17 -6 -8 -8 -8
-8 2 0 6 -9 12 -20 12 -11 0 -20 -6 -20 -12 0 -9 -3 -9 -9 1 -5 8 -7 20 -4 28
3 7 0 13 -6 13 -6 0 -11 -11 -11 -25 0 -14 -4 -25 -10 -25 -5 0 -10 21 -11 48
0 39 -2 43 -10 24 -10 -27 -31 -25 -35 2 -4 26 -14 33 -14 10 0 -11 -9 -25
-20 -32 -17 -10 -20 -9 -26 13 -7 30 -20 32 -27 5 -6 -22 -37 -18 -37 5 0 8
-4 16 -9 20 -5 3 -14 -18 -19 -47 l-10 -53 -1 45 c-1 34 -8 51 -26 69 l-25 23
0 -29 c0 -39 -11 -48 -24 -20 -9 17 -20 22 -49 22 -24 0 -37 5 -37 13 0 10 -4
10 -15 -2 -9 -8 -22 -13 -30 -10 -10 4 -15 -1 -15 -16 0 -12 -4 -18 -10 -15
-6 4 -8 10 -5 15 3 4 1 19 -3 31 -8 21 -10 20 -16 -14 -7 -39 -26 -51 -26 -17
0 17 -7 20 -40 20 -29 0 -38 4 -34 14 3 8 -3 16 -15 19 -16 4 -21 -1 -26 -25
l-7 -30 -17 26 -18 26 -1 -41 c-2 -46 -12 -68 -12 -26 0 14 -4 29 -10 32 -5 3
-10 15 -10 26 0 10 -4 19 -10 19 -5 0 -10 -13 -10 -29 0 -41 -16 -47 -32 -14
-15 31 -45 39 -40 11 3 -16 -19 -24 -50 -19 -5 0 -8 -4 -8 -10 0 -8 -5 -8 -15
1 -10 9 -15 9 -15 1 0 -20 -20 -12 -30 12 -7 17 -9 18 -9 5 -1 -28 -19 -21
-23 9 -2 21 -9 27 -33 30 -23 3 -26 1 -15 -7 13 -8 12 -10 -3 -10 -14 0 -17
-5 -12 -20 5 -17 2 -20 -24 -20 -18 0 -34 7 -40 18 -8 14 -12 15 -22 5 -20
-20 -29 -15 -29 13 0 14 -4 23 -10 19 -5 -3 -16 -3 -22 2 -17 11 -78 10 -78
-1 0 -5 -7 -3 -15 4 -12 10 -15 10 -15 -4 0 -9 -5 -16 -11 -16 -5 0 -8 4 -5 9
3 5 -1 12 -10 15 -24 9 -36 7 -28 -5 4 -8 0 -9 -15 -4 -17 5 -21 2 -21 -17 l0
-23 -13 25 c-10 20 -20 25 -46 23 -19 -1 -37 -7 -41 -13 -4 -7 -13 -9 -19 -6
-6 4 -8 12 -5 18 5 7 0 9 -14 6 -12 -4 -24 -2 -27 2 -7 12 -48 -1 -62 -19 -6
-9 -15 -12 -19 -8 -5 4 -2 12 6 17 10 7 -18 10 -82 10 -71 0 -98 -3 -99 -12 0
-10 -2 -10 -6 0 -6 16 -33 16 -33 -1 0 -8 -7 -14 -15 -14 -18 0 -20 13 -2 20
6 3 -25 6 -70 7 -148 4 -154 3 -133 -10 12 -7 8 -10 -15 -10 -23 0 -27 3 -15
10 12 8 11 10 -7 10 -15 0 -23 -6 -24 -17 -1 -17 -2 -17 -6 0 -2 9 -11 17 -19
17 -8 0 -12 -4 -9 -10 3 -5 2 -10 -4 -10 -5 0 -11 4 -13 10 -2 6 -99 12 -248
14 -135 3 -249 5 -254 5 -6 1 -5 6 1 12 14 14 423 20 423 7 0 -5 6 -6 12 -1 7
4 29 9 48 10 19 1 59 4 88 6 28 2 52 1 52 -3 0 -6 35 -6 50 0 3 1 16 1 29 0
13 -1 28 4 32 12 7 10 9 10 9 -3 0 -11 9 -16 30 -16 17 0 30 4 30 9 0 5 5 6
12 2 6 -4 49 -8 95 -9 69 -1 83 1 84 14 1 13 2 12 6 -1 5 -19 28 -24 38 -9 3
6 18 6 37 -1 26 -9 33 -8 44 7 12 16 14 17 20 2 6 -18 34 -24 34 -8 0 12 56 6
74 -8 8 -7 17 -8 20 -3 3 5 18 7 32 4 20 -4 25 -2 19 8 -6 9 -4 11 5 5 20 -12
94 -13 102 -1 5 7 8 7 8 -1 0 -7 6 -13 14 -13 8 0 17 6 19 13 3 7 6 4 6 -7 1
-15 4 -16 16 -6 8 6 18 9 24 6 5 -3 11 1 14 8 3 8 14 15 24 14 10 0 28 3 41 6
19 4 22 2 17 -14 -5 -15 -3 -18 9 -14 9 3 16 11 17 18 1 6 4 0 9 -14 l7 -25
11 25 c8 18 11 20 11 8 1 -20 31 -25 31 -6 0 6 3 8 7 5 3 -4 15 1 26 10 15 13
21 15 24 6 7 -19 23 -16 24 5 1 11 4 9 9 -8 4 -14 8 -19 9 -11 1 11 4 10 14
-3 12 -16 17 -17 36 -6 15 8 21 8 17 1 -11 -17 14 -13 32 6 16 16 17 15 20 -5
3 -18 6 -20 23 -9 10 6 19 19 19 27 1 12 3 12 14 -3 13 -16 14 -16 30 5 16 23
16 23 10 -7 -4 -23 -3 -26 5 -15 7 10 11 11 11 3 0 -17 18 -16 36 2 22 21 44
19 44 -6 0 -11 5 -17 10 -14 6 3 10 17 10 31 0 15 6 24 15 24 9 0 15 -9 15
-25 0 -14 5 -25 10 -25 6 0 10 7 10 15 0 8 5 15 10 15 6 0 10 -6 10 -14 0 -10
8 -13 28 -10 15 3 35 5 44 5 10 0 21 5 25 11 4 8 9 5 13 -8 6 -17 10 -15 30
16 12 19 20 27 16 18 -3 -10 -3 -25 1 -34 5 -13 7 -13 14 -2 6 9 9 10 9 1 0
-7 7 -10 15 -7 9 4 15 20 16 43 0 34 1 35 10 11 6 -14 8 -33 5 -42 -7 -29 13
-21 35 15 l21 32 -6 -28 c-5 -19 -3 -26 4 -22 5 3 10 0 10 -7 0 -8 3 -9 8 -3
9 14 50 17 57 4 11 -17 25 -9 25 16 0 15 6 25 14 25 9 0 12 -7 9 -20 -3 -11
-1 -20 5 -20 6 0 14 9 17 20 8 25 22 26 28 3 3 -13 5 -11 6 6 l1 24 19 -21
c22 -26 31 -28 31 -7 0 8 -6 15 -12 15 -9 0 -8 4 2 10 22 14 30 12 23 -6 -8
-21 36 -62 47 -44 4 7 13 9 19 6 6 -4 11 -2 11 4 0 6 5 8 12 4 29 -18 50 -11
61 20 l11 31 7 -30 6 -30 11 28 c15 36 23 35 16 -3 -4 -16 -3 -30 0 -30 12 0
51 22 57 33 4 6 13 6 25 -1 15 -8 23 -5 41 16 13 15 24 36 24 47 1 15 3 13 6
-5 2 -14 6 -35 9 -48z m-3209 -68 c-3 -3 -12 -4 -19 -1 -8 3 -5 6 6 6 11 1 17
-2 13 -5z m66 -1 c-7 -2 -21 -2 -30 0 -10 3 -4 5 12 5 17 0 24 -2 18 -5z
m5587 -43 c0 -30 -4 -50 -11 -50 -6 0 -9 7 -5 15 3 8 1 15 -4 15 -5 0 -11 -8
-13 -17 -3 -12 -5 -8 -6 9 -1 28 -21 51 -21 24 0 -10 -9 -16 -21 -16 -15 0
-19 -5 -15 -15 3 -8 2 -15 -3 -15 -5 0 -11 9 -14 21 -3 12 -10 18 -16 14 -7
-3 -11 2 -11 14 0 11 5 23 10 26 6 3 10 -2 10 -12 0 -15 2 -15 9 -4 6 9 26 15
55 15 31 0 46 4 46 13 0 7 2 13 5 13 3 0 5 -22 5 -50z m-150 -7 c0 -46 -17
-60 -22 -19 -2 20 -2 39 1 41 12 12 21 2 21 -22z m-3713 -35 c-3 -7 -5 -2 -5
12 0 14 2 19 5 13 2 -7 2 -19 0 -25z m3026 -18 c3 -11 1 -20 -4 -20 -5 0 -9 9
-9 20 0 11 2 20 4 20 2 0 6 -9 9 -20z m286 -42 c1 -5 -5 -8 -13 -8 -9 0 -12 8
-8 27 5 25 6 25 13 8 4 -11 8 -23 8 -27z m-279 2 c0 -5 -2 -10 -4 -10 -3 0 -8
5 -11 10 -3 6 -1 10 4 10 6 0 11 -4 11 -10z m320 0 c0 -5 -4 -10 -10 -10 -5 0
-10 5 -10 10 0 6 5 10 10 10 6 0 10 -4 10 -10z m110 2 c0 -14 -11 -21 -26 -15
-21 8 -17 23 6 23 11 0 20 -4 20 -8z m-2603 -24 c-3 -8 -6 -5 -6 6 -1 11 2 17
5 13 3 -3 4 -12 1 -19z m73 12 c0 -5 -7 -10 -16 -10 -8 0 -12 5 -9 10 3 6 10
10 16 10 5 0 9 -4 9 -10z m1224 -15 c-4 -8 -8 -15 -10 -15 -2 0 -4 7 -4 15 0
8 4 15 10 15 5 0 7 -7 4 -15z m76 5 c0 -5 -4 -10 -10 -10 -5 0 -10 5 -10 10 0
6 5 10 10 10 6 0 10 -4 10 -10z m-1007 -17 c-7 -2 -19 -2 -25 0 -7 3 -2 5 12
5 14 0 19 -2 13 -5z m1757 -7 c0 -3 -4 -8 -10 -11 -5 -3 -10 -1 -10 4 0 6 5
11 10 11 6 0 10 -2 10 -4z m-1742 -43 c-10 -2 -26 -2 -35 0 -10 3 -2 5 17 5
19 0 27 -2 18 -5z m492 -19 c0 -2 -12 -4 -26 -4 -14 0 -23 4 -20 9 6 8 46 4
46 -5z m103 -1 c-18 -2 -48 -2 -65 0 -18 2 -4 4 32 4 36 0 50 -2 33 -4z
m-1638 -133 c21 -5 7 -8 -50 -8 -53 0 -73 2 -60 8 24 10 69 10 110 0z m430
-40 c57 -11 -94 -12 -256 -2 l-124 7 95 5 c103 6 221 2 285 -10z m1622 -22
c-3 -8 -6 -5 -6 6 -1 11 2 17 5 13 3 -3 4 -12 1 -19z m-1802 -13 c379 -22 425
-26 425 -37 0 -25 -900 13 -971 41 -38 15 248 13 546 -4z m455 -35 c0 -5 -2
-10 -4 -10 -3 0 -8 5 -11 10 -3 6 -1 10 4 10 6 0 11 -4 11 -10z m30 -18 c0
-15 -2 -15 -10 -2 -13 20 -13 33 0 25 6 -3 10 -14 10 -23z m1333 -99 c2 -51 0
-93 -5 -93 -4 0 -7 48 -7 108 2 124 6 117 12 -15z m-943 103 c0 -2 3 -11 6
-19 4 -11 -1 -15 -20 -13 -16 0 -24 6 -22 13 3 7 -8 13 -27 16 -24 3 -20 4 16
5 26 1 47 0 47 -2z m-3149 -49 c-10 -9 -11 -8 -5 6 3 10 9 15 12 12 3 -3 0
-11 -7 -18z m480 -50 c-8 -8 -11 -1 -11 24 0 46 14 60 18 19 2 -18 -1 -37 -7
-43z m-149 -57 l-10 -55 -1 60 c0 33 3 71 7 85 7 25 7 25 10 -5 1 -16 -1 -55
-6 -85z m429 49 c5 -29 14 -56 20 -60 16 -9 4 -39 -16 -39 -12 0 -15 12 -15
54 0 30 -4 57 -9 60 -5 3 -7 15 -4 26 8 30 15 18 24 -41z m-134 -16 c-3 -27
-10 -59 -15 -73 -8 -19 -9 -11 -5 35 5 67 9 85 19 85 3 0 4 -21 1 -47z m2358
38 c28 -6 28 -7 8 -13 -13 -3 -26 -2 -29 3 -3 5 -10 7 -15 4 -5 -4 -17 -1 -26
4 -16 9 -15 10 7 10 14 -1 39 -4 55 -8z m-2172 -101 l-7 -35 -6 30 c-3 16 -3
48 -1 70 l4 40 8 -35 c5 -19 5 -51 2 -70z m2948 81 c63 -5 128 -15 143 -21 15
-5 46 -11 69 -12 23 -1 4 -4 -43 -7 -47 -3 -98 -3 -115 2 -16 4 -73 7 -125 7
-116 0 -429 19 -450 28 -48 20 312 22 521 3z m-3061 -6 c0 -8 -2 -15 -4 -15
-2 0 -6 7 -10 15 -3 8 -1 15 4 15 6 0 10 -7 10 -15z m-475 -37 c-4 -24 -11
-47 -15 -51 -4 -5 -4 11 1 35 4 24 8 46 9 51 0 4 3 7 6 7 3 0 3 -19 -1 -42z
m205 -17 c-1 -10 -6 -7 -15 9 -19 33 -18 50 0 26 8 -11 15 -27 15 -35z m412
17 c-3 -14 -2 -19 6 -14 17 10 15 -3 -3 -21 -9 -9 -13 -23 -10 -34 4 -11 2
-19 -4 -19 -6 0 -11 -7 -11 -16 0 -14 -2 -13 -17 1 -15 15 -15 18 -1 26 9 5
19 26 23 46 4 21 9 41 11 45 9 15 12 8 6 -14z m-552 -20 c-1 -26 -3 -30 -10
-16 -6 9 -7 23 -4 32 9 25 14 19 14 -16z m357 0 c-3 -7 -5 -2 -5 12 0 14 2 19
5 13 2 -7 2 -19 0 -25z m5160 -5 c-3 -10 -5 -4 -5 12 0 17 2 24 5 18 2 -7 2
-21 0 -30z m-4897 -39 c0 -8 -4 -12 -10 -9 -5 3 -10 10 -10 16 0 5 5 9 10 9 6
0 10 -7 10 -16z m-386 -20 c3 -8 2 -12 -4 -9 -6 3 -10 10 -10 16 0 14 7 11 14
-7z m367 -31 c-12 -20 -14 -14 -5 12 4 9 9 14 11 11 3 -2 0 -13 -6 -23z m4709
-6 c0 -2 -12 -14 -27 -28 l-28 -24 24 28 c23 25 31 32 31 24z m-5039 -24 c13
-16 12 -17 -3 -4 -17 13 -22 21 -14 21 2 0 10 -8 17 -17z m36 -15 c-3 -7 -5
-2 -5 12 0 14 2 19 5 13 2 -7 2 -19 0 -25z m4707 7 c3 -8 1 -15 -4 -15 -6 0
-10 7 -10 15 0 8 2 15 4 15 2 0 6 -7 10 -15z m-4625 -22 c2 -2 -3 -3 -11 -3
-9 0 -19 7 -22 16 -6 15 -4 15 11 3 10 -7 20 -15 22 -16z m5128 -35 c-2 -13
-4 -5 -4 17 -1 22 1 32 4 23 2 -10 2 -28 0 -40z m-5193 17 c-4 -8 -8 -15 -10
-15 -2 0 -4 7 -4 15 0 8 4 15 10 15 5 0 7 -7 4 -15z m4571 5 c3 -5 1 -10 -4
-10 -6 0 -11 5 -11 10 0 6 2 10 4 10 3 0 8 -4 11 -10z m-785 -60 c0 -5 -5 -10
-11 -10 -5 0 -7 5 -4 10 3 6 8 10 11 10 2 0 4 -4 4 -10z m1397 -22 c-3 -7 -5
-2 -5 12 0 14 2 19 5 13 2 -7 2 -19 0 -25z m-4777 -12 c0 -9 -39 -13 -51 -5
-10 6 -4 9 19 9 17 0 32 -2 32 -4z m41 -14 c-7 -2 -18 1 -23 6 -8 8 -4 9 13 5
13 -4 18 -8 10 -11z m-231 -31 c0 -14 -5 -18 -20 -14 -21 5 -25 15 -13 26 13
14 33 6 33 -12z m240 9 c0 -5 -2 -10 -4 -10 -3 0 -8 5 -11 10 -3 6 -1 10 4 10
6 0 11 -4 11 -10z m-160 -10 c22 -6 23 -8 8 -15 -10 -4 -15 -11 -12 -17 3 -5
-7 -7 -23 -5 -20 2 -29 10 -31 25 -4 24 11 27 58 12z m130 -19 c0 -6 -4 -12
-9 -15 -5 -3 -8 -17 -8 -32 0 -38 -17 -49 -42 -28 -25 22 -27 34 -5 34 9 0 14
6 12 12 -3 7 5 18 16 24 27 15 36 16 36 5z m-245 -31 c3 -5 1 -10 -4 -10 -6 0
-11 5 -11 10 0 6 2 10 4 10 3 0 8 -4 11 -10z m319 -26 c19 -41 20 -39 -14 -48
-14 -3 -19 -3 -12 0 18 8 15 24 -5 24 -14 0 -15 2 -4 9 11 7 11 10 0 15 -11 5
-11 7 -1 12 6 3 10 10 6 15 -3 5 -1 9 4 9 4 0 16 -16 26 -36z m61 -4 c19 -1
19 -2 3 -14 -10 -7 -17 -15 -15 -17 1 -3 -6 4 -15 14 -20 22 -25 48 -6 29 7
-7 21 -12 33 -12z m4185 -5 c0 -8 -4 -15 -10 -15 -5 0 -7 7 -4 15 4 8 8 15 10
15 2 0 4 -7 4 -15z m-4490 1 c0 -2 -7 -7 -16 -10 -8 -3 -12 -2 -9 4 6 10 25
14 25 6z m455 -16 c-3 -5 -13 -10 -21 -10 -8 0 -12 5 -9 10 3 6 13 10 21 10 8
0 12 -4 9 -10z m-505 -20 c0 -5 -2 -10 -4 -10 -3 0 -8 5 -11 10 -3 6 -1 10 4
10 6 0 11 -4 11 -10z m130 0 c0 -5 -2 -10 -4 -10 -3 0 -8 5 -11 10 -3 6 -1 10
4 10 6 0 11 -4 11 -10z m54 -35 c-6 -16 -24 -21 -24 -7 0 11 11 22 21 22 5 0
6 -7 3 -15z m122 2 c6 -5 -25 -79 -41 -97 -7 -8 -16 -33 -20 -55 -4 -22 -10
-35 -12 -28 -3 7 -17 10 -39 6 -35 -6 -38 -1 -37 45 1 6 -2 12 -6 12 -4 0 -13
-6 -21 -12 -7 -7 -5 -1 6 14 13 18 20 22 22 12 2 -8 13 -14 25 -14 22 1 22 1
3 15 -19 15 -19 16 5 19 7 0 15 10 20 21 6 17 8 17 8 3 1 -10 6 -18 11 -18 18
0 23 28 11 61 l-11 32 36 -6 c20 -4 38 -8 40 -10z m65 -12 c1 -8 3 -19 4 -25
1 -5 3 -23 4 -40 1 -34 17 -40 26 -9 4 11 9 18 12 16 9 -10 -29 -118 -44 -124
-12 -5 -12 -7 -1 -14 9 -6 3 -8 -17 -8 -37 2 -97 16 -72 18 18 1 25 21 7 21
-15 0 -11 31 10 75 11 22 19 43 20 47 0 4 4 18 10 32 10 28 39 35 41 11z
m-684 -177 c-3 -8 -6 -5 -6 6 -1 11 2 17 5 13 3 -3 4 -12 1 -19z m427 -4 c5
-13 17 -15 69 -10 54 4 57 4 27 -5 -56 -17 -120 -22 -120 -10 0 6 6 11 13 11
7 0 4 7 -7 15 -16 12 -17 15 -4 15 9 0 19 -7 22 -16z m243 -109 c-4 -25 -3
-45 2 -45 5 0 12 20 15 45 l7 45 47 0 c29 0 42 -3 34 -9 -11 -6 -10 -11 3 -25
16 -15 14 -17 -19 -31 -19 -8 -41 -15 -48 -16 -10 0 -10 -2 0 -6 22 -9 12 -23
-17 -23 -18 0 -34 8 -44 23 -15 21 -16 21 -18 2 -1 -13 -4 -10 -8 10 -5 23
-11 29 -26 27 -16 -3 -18 -1 -7 9 18 20 15 27 -15 32 -16 2 1 5 36 6 l64 1 -6
-45z m693 -28 c54 -16 62 -21 45 -29 -18 -8 -18 -8 2 -4 29 5 123 -19 103 -27
-55 -20 -272 -27 -278 -9 -2 8 8 12 28 12 18 0 29 4 25 10 -3 6 6 11 22 12 15
1 1 4 -32 7 -57 6 -60 7 -63 35 -4 28 -3 28 40 21 24 -4 72 -16 108 -28z
m2030 23 c0 -5 -4 -10 -10 -10 -5 0 -10 5 -10 10 0 6 5 10 10 10 6 0 10 -4 10
-10z m-2780 -30 c0 -5 -2 -10 -4 -10 -3 0 -8 5 -11 10 -3 6 -1 10 4 10 6 0 11
-4 11 -10z m1568 -12 c-2 -6 -15 -18 -28 -27 l-24 -16 18 28 c18 27 41 38 34
15z m-68 -2 c0 -3 -4 -8 -10 -11 -5 -3 -10 -1 -10 4 0 6 5 11 10 11 6 0 10 -2
10 -4z m-1305 -27 c-22 -4 -49 -8 -60 -8 l-20 0 20 9 c11 5 38 8 60 8 l40 0
-40 -9z m1305 -29 c0 -5 -4 -10 -10 -10 -5 0 -10 5 -10 10 0 6 5 10 10 10 6 0
10 -4 10 -10z m1205 -20 c-3 -5 -15 -10 -26 -10 -10 0 -19 5 -19 10 0 6 12 10
26 10 14 0 23 -4 19 -10z m-2975 -25 c0 -8 -2 -15 -4 -15 -2 0 -6 7 -10 15 -3
8 -1 15 4 15 6 0 10 -7 10 -15z m677 -11 c-3 -3 -12 -4 -19 -1 -8 3 -5 6 6 6
11 1 17 -2 13 -5z m2289 -22 c-4 -24 -36 -28 -36 -5 0 11 8 19 19 20 13 1 18
-4 17 -15z m1079 8 c-3 -5 -17 -10 -31 -10 -14 0 -22 4 -19 10 3 6 17 10 31
10 14 0 22 -4 19 -10z m-59 -25 c17 -13 17 -14 2 -15 -9 0 -20 5 -23 10 -3 6
-14 10 -23 9 -11 0 -12 -2 -4 -6 26 -10 0 -21 -28 -11 -17 5 -28 13 -25 17 8
14 81 11 101 -4z m241 9 c-3 -3 -12 -4 -19 -1 -8 3 -5 6 6 6 11 1 17 -2 13 -5z
m-777 -43 c0 -35 3 -39 30 -44 22 -5 28 -11 23 -23 -5 -13 1 -15 43 -10 34 4
43 3 29 -3 -29 -14 -113 -13 -121 1 -5 8 -2 9 9 5 10 -3 17 -2 17 2 0 13 -28
22 -35 11 -4 -6 -11 -10 -16 -10 -6 0 -7 5 -3 12 5 8 -2 9 -24 5 -24 -5 -32
-3 -32 8 0 8 7 15 15 15 9 0 12 6 9 15 -4 8 -10 13 -14 10 -11 -7 -40 5 -40
17 0 5 10 6 21 3 14 -5 25 -2 30 6 6 10 12 4 23 -21 l15 -35 1 38 c0 20 5 37
10 37 6 0 10 -17 10 -39z m210 29 c0 -5 -2 -10 -4 -10 -3 0 -8 5 -11 10 -3 6
-1 10 4 10 6 0 11 -4 11 -10z m1100 0 c0 -5 -6 -10 -14 -10 -8 0 -18 5 -21 10
-3 6 3 10 14 10 12 0 21 -4 21 -10z m53 -15 c-7 -21 -13 -19 -13 6 0 11 4 18
10 14 5 -3 7 -12 3 -20z m-1657 6 c-3 -5 -22 -12 -41 -15 -19 -4 -35 -11 -35
-15 0 -16 -59 -18 -65 -3 -8 22 -2 25 67 29 35 2 65 6 67 9 8 7 12 4 7 -5z
m-156 -88 c0 -58 2 -63 25 -69 38 -9 31 -27 -7 -18 -18 4 -40 8 -48 9 -17 1
-20 7 -19 33 0 14 2 14 9 -3 7 -18 8 -17 14 10 17 75 18 73 -11 77 -16 2 -27
8 -25 13 2 6 10 9 18 7 8 -2 17 4 21 13 11 30 23 -6 23 -72z m1739 71 c2 -2 2
-7 -1 -10 -4 -3 -19 2 -35 11 l-28 16 30 -6 c16 -4 32 -9 34 -11z m-1406 -53
c9 -12 9 -13 0 -7 -8 4 -13 1 -13 -8 0 -11 10 -16 28 -17 15 -1 38 -5 52 -10
18 -6 13 -7 -21 -3 -32 3 -51 1 -60 -9 -11 -11 -91 -37 -113 -37 -6 0 3 92 10
99 2 2 4 -14 4 -36 0 -35 3 -39 23 -37 12 1 28 3 36 3 8 1 11 4 8 7 -3 4 0 16
8 28 8 11 16 36 16 56 1 27 3 30 6 10 3 -14 10 -31 16 -39z m-1415 12 c3 -30
1 -33 -25 -33 -16 0 -38 7 -49 16 -10 8 -13 12 -5 8 11 -5 13 -2 9 14 -4 12
-2 20 3 16 5 -3 9 0 9 6 0 6 12 10 28 8 22 -2 28 -8 30 -35z m1772 26 c0 -6
-8 -8 -20 -4 -10 3 -28 1 -40 -5 -16 -9 -20 -8 -20 5 0 11 11 15 40 15 22 0
40 -5 40 -11z m-777 -14 c4 -8 3 -16 -1 -19 -4 -3 -9 4 -9 15 -2 23 3 25 10 4z
m-913 -26 c0 -15 -26 -29 -57 -29 -7 0 -13 11 -13 25 0 23 4 25 35 23 25 -1
35 -7 35 -19z m1973 4 c-7 -2 -19 -2 -25 0 -7 3 -2 5 12 5 14 0 19 -2 13 -5z
m-1033 -13 c0 -5 -5 -10 -11 -10 -5 0 -7 5 -4 10 3 6 8 10 11 10 2 0 4 -4 4
-10z m880 -4 c0 -8 -4 -18 -10 -21 -5 -3 -10 3 -10 14 0 12 5 21 10 21 6 0 10
-6 10 -14z m-42 -3 c-10 -2 -26 -2 -35 0 -10 3 -2 5 17 5 19 0 27 -2 18 -5z
m-163 -13 c3 -5 1 -10 -4 -10 -6 0 -11 5 -11 10 0 6 2 10 4 10 3 0 8 -4 11
-10z m1156 -8 c-11 -21 -41 -48 -41 -37 0 7 42 54 48 55 1 0 -2 -8 -7 -18z
m-2298 1 c-7 -2 -21 -2 -30 0 -10 3 -4 5 12 5 17 0 24 -2 18 -5z m-138 -13
c18 -8 17 -9 -7 -9 -16 -1 -28 4 -28 9 0 12 8 12 35 0z m783 3 c-10 -2 -26 -2
-35 0 -10 3 -2 5 17 5 19 0 27 -2 18 -5z m33 -24 c-9 -22 -10 -22 -10 -3 -1
11 2 24 6 27 12 12 14 0 4 -24z m674 -19 c8 0 15 -5 15 -10 0 -6 -11 -8 -27
-4 -35 9 -35 8 -27 29 6 15 8 16 16 1 5 -9 16 -16 23 -16z m-472 13 c-7 -2
-19 -2 -25 0 -7 3 -2 5 12 5 14 0 19 -2 13 -5z m399 -1 c-7 -5 -40 -7 -73 -5
-34 1 -69 -2 -79 -7 -10 -6 -26 -7 -34 -4 -34 13 -2 21 96 22 59 2 98 -1 90
-6z m-1123 -8 c55 -11 33 -22 -45 -22 -73 0 -90 12 -29 21 17 2 33 5 36 6 4 0
21 -2 38 -5z m296 -15 c-4 -5 -13 -9 -21 -9 -12 0 -12 2 -2 14 14 15 32 11 23
-5z m1250 -1 c7 -7 1 -8 -15 -2 -30 9 -49 9 -72 -1 -11 -4 -18 -3 -18 3 0 22
83 21 105 0z m-500 -8 c3 -5 2 -10 -4 -10 -5 0 -13 5 -16 10 -3 6 -2 10 4 10
5 0 13 -4 16 -10z m-320 -10 c8 -13 -5 -13 -25 0 -13 8 -13 10 2 10 9 0 20 -4
23 -10z m1329 -12 c-6 -10 -64 -80 -120 -147 -2 -2 -4 1 -4 7 0 12 117 152
126 152 3 0 2 -6 -2 -12z m-474 -58 c0 -5 -2 -10 -4 -10 -3 0 -8 5 -11 10 -3
6 -1 10 4 10 6 0 11 -4 11 -10z m395 -169 c-6 -5 -25 10 -25 20 0 5 6 4 14 -3
8 -7 12 -15 11 -17z m-2410 -47 c54 -23 71 -35 73 -52 3 -21 32 -32 32 -12 0
6 5 10 10 10 16 0 11 -37 -6 -44 -13 -5 -14 -9 -4 -21 11 -13 8 -15 -14 -15
-16 0 -25 4 -21 10 3 6 2 10 -4 10 -5 0 -12 -6 -14 -12 -3 -7 -6 -4 -7 7 -1
19 -1 19 -14 2 -8 -10 -17 -14 -20 -9 -3 5 1 15 9 22 8 7 15 18 15 25 0 8 6
15 13 18 6 2 9 8 5 12 -9 9 -68 -52 -68 -71 0 -8 -7 -17 -15 -20 -10 -4 -13
-13 -10 -25 5 -14 1 -19 -14 -19 -24 0 -27 12 -7 29 16 13 11 45 -10 62 -11 9
-14 7 -14 -10 0 -11 -5 -21 -11 -21 -7 0 -9 16 -4 49 6 44 4 51 -20 75 -52 53
-6 52 120 0z m2385 31 c0 -8 -4 -15 -10 -15 -5 0 -10 7 -10 15 0 8 5 15 10 15
6 0 10 -7 10 -15z m-2180 -155 c0 -5 -4 -10 -10 -10 -5 0 -10 5 -10 10 0 6 5
10 10 10 6 0 10 -4 10 -10z m90 -40 c0 -10 -26 -20 -51 -20 -26 0 -24 13 4 26
23 10 47 8 47 -6z m-130 -100 c-8 -5 -19 -10 -25 -10 -5 0 -3 5 5 10 8 5 20
10 25 10 6 0 3 -5 -5 -10z m110 -100 c0 -11 -4 -20 -10 -20 -5 0 -10 9 -10 20
0 11 5 20 10 20 6 0 10 -9 10 -20z m245 -81 c-10 -15 -25 -10 -19 6 4 8 10 12
15 9 5 -3 7 -10 4 -15z m-389 -53 c-2 -22 -5 -42 -5 -43 -1 -2 -1 -6 -2 -10 0
-5 -5 -14 -11 -20 -17 -21 -27 -5 -17 30 5 17 9 46 9 64 0 25 3 31 15 26 12
-4 15 -16 11 -47z m277 13 c-5 -19 -7 -19 -15 -5 -10 18 -2 39 12 31 4 -3 6
-15 3 -26z m101 8 c4 4 4 -1 0 -11 -5 -12 -9 -14 -14 -6 -5 8 -9 4 -13 -9 -5
-21 -37 -30 -37 -11 0 18 35 47 46 38 6 -4 14 -5 18 -1z m196 -8 c0 -11 -4
-18 -10 -14 -5 3 -7 12 -3 20 7 21 13 19 13 -6z m-500 -13 c0 -15 -18 -31 -26
-23 -7 7 7 37 17 37 5 0 9 -6 9 -14z m-40 -46 c0 -5 -4 -10 -10 -10 -5 0 -10
5 -10 10 0 6 5 10 10 10 6 0 10 -4 10 -10z m308 -8 c2 -7 -3 -12 -12 -12 -9 0
-16 7 -16 16 0 17 22 14 28 -4z m2217 -1714 c-4 -24 -11 -47 -15 -53 -4 -5
-11 -25 -15 -42 -3 -18 -11 -33 -16 -33 -12 0 -12 23 0 52 5 13 17 44 26 71
21 58 29 60 20 5z m-501 -145 c19 -130 19 -133 0 -133 -11 0 -32 14 -49 31
-29 30 -29 31 -11 45 11 8 26 14 34 14 11 0 13 9 9 40 -3 22 -1 40 3 40 5 0
11 -17 14 -37z"/>
<path d="M4062 5970 c0 -14 2 -19 5 -12 2 6 2 18 0 25 -3 6 -5 1 -5 -13z"/>
<path d="M5042 5940 c0 -14 2 -19 5 -12 2 6 2 18 0 25 -3 6 -5 1 -5 -13z"/>
<path d="M5021 5934 c0 -11 3 -14 6 -6 3 7 2 16 -1 19 -3 4 -6 -2 -5 -13z"/>
<path d="M2455 5890 c3 -5 8 -10 11 -10 2 0 4 5 4 10 0 6 -5 10 -11 10 -5 0
-7 -4 -4 -10z"/>
<path d="M2545 5890 c-16 -7 -17 -9 -3 -9 9 -1 20 4 23 9 7 11 7 11 -20 0z"/>
<path d="M2801 5884 c0 -11 3 -14 6 -6 3 7 2 16 -1 19 -3 4 -6 -2 -5 -13z"/>
<path d="M4465 5890 c3 -5 8 -10 11 -10 2 0 4 5 4 10 0 6 -5 10 -11 10 -5 0
-7 -4 -4 -10z"/>
<path d="M2951 5874 c0 -11 3 -14 6 -6 3 7 2 16 -1 19 -3 4 -6 -2 -5 -13z"/>
<path d="M4865 5880 c4 -6 11 -8 16 -5 14 9 11 15 -7 15 -8 0 -12 -5 -9 -10z"/>
<path d="M4056 5865 c-3 -8 -1 -15 4 -15 6 0 10 7 10 15 0 8 -2 15 -4 15 -2 0
-6 -7 -10 -15z"/>
<path d="M4250 5866 c0 -9 5 -16 10 -16 6 0 10 4 10 9 0 6 -4 13 -10 16 -5 3
-10 -1 -10 -9z"/>
<path d="M3972 5841 c0 -17 3 -31 8 -31 16 0 18 15 6 39 -13 23 -13 23 -14 -8z"/>
<path d="M4688 5843 c7 -3 16 -2 19 1 4 3 -2 6 -13 5 -11 0 -14 -3 -6 -6z"/>
<path d="M3320 5828 c0 -4 9 -8 20 -8 11 0 20 4 20 9 0 6 -9 9 -20 8 -11 -1
-20 -5 -20 -9z"/>
<path d="M4073 5813 c9 -2 23 -2 30 0 6 3 -1 5 -18 5 -16 0 -22 -2 -12 -5z"/>
<path d="M3010 5800 c0 -5 9 -10 20 -10 11 0 20 5 20 10 0 6 -9 10 -20 10 -11
0 -20 -4 -20 -10z"/>
<path d="M3375 5790 c-3 -5 -1 -10 4 -10 6 0 11 5 11 10 0 6 -2 10 -4 10 -3 0
-8 -4 -11 -10z"/>
<path d="M3426 5791 c-3 -5 1 -11 9 -15 9 -3 15 0 15 9 0 16 -16 20 -24 6z"/>
<path d="M3460 5788 c0 -7 5 -9 30 -12 6 -1 9 3 8 9 -4 11 -38 15 -38 3z"/>
<path d="M3745 5790 c-2 -3 5 -7 16 -7 10 -1 19 2 19 6 0 9 -29 10 -35 1z"/>
<path d="M3668 5783 c6 -2 18 -2 25 0 6 3 1 5 -13 5 -14 0 -19 -2 -12 -5z"/>
<path d="M4790 6836 c0 -8 5 -18 10 -21 6 -3 10 3 10 14 0 12 -4 21 -10 21 -5
0 -10 -6 -10 -14z"/>
<path d="M4690 6810 c8 -5 20 -10 25 -10 6 0 3 5 -5 10 -8 5 -19 10 -25 10 -5
0 -3 -5 5 -10z"/>
<path d="M3215 6629 c-4 -6 -17 -14 -29 -19 -16 -7 -10 -9 27 -9 45 -1 47 0
37 19 -12 22 -25 26 -35 9z"/>
<path d="M3915 6620 c-3 -5 -1 -10 4 -10 6 0 11 5 11 10 0 6 -2 10 -4 10 -3 0
-8 -4 -11 -10z"/>
<path d="M2912 6583 c11 -3 15 -10 11 -21 -6 -15 -3 -14 15 2 29 25 28 26 -10
25 -18 -1 -25 -3 -16 -6z"/>
<path d="M5980 5865 c0 -8 5 -15 10 -15 6 0 10 7 10 15 0 8 -4 15 -10 15 -5 0
-10 -7 -10 -15z"/>
<path d="M2575 5320 c-8 -16 -18 -50 -22 -75 -3 -25 -9 -48 -13 -50 -4 -3 -1
-24 7 -47 8 -24 15 -54 15 -68 0 -14 5 -31 11 -38 8 -10 8 -15 0 -20 -8 -5 -7
-13 3 -27 13 -17 16 -18 24 -5 6 8 7 22 3 30 -4 8 -7 29 -8 45 -2 30 -9 57
-25 85 -12 24 -4 89 18 148 22 56 13 71 -13 22z m20 -310 c3 -5 1 -10 -4 -10
-6 0 -11 5 -11 10 0 6 2 10 4 10 3 0 8 -4 11 -10z"/>
<path d="M2757 5314 c-3 -3 -2 -14 0 -25 4 -15 11 -19 27 -15 11 3 33 6 49 6
27 0 41 29 15 31 -7 1 -29 3 -49 4 -21 2 -39 2 -42 -1z"/>
<path d="M2872 5293 c4 -24 61 -24 66 0 3 14 -4 17 -33 17 -29 0 -36 -4 -33
-17z"/>
<path d="M1683 5266 c-3 -5 -1 -6 5 -2 6 3 13 2 17 -4 7 -11 25 -4 25 10 0 11
-40 8 -47 -4z"/>
<path d="M2321 5213 c-1 -24 -5 -31 -16 -27 -8 4 -15 2 -15 -2 0 -13 20 -41
20 -29 0 6 4 4 9 -3 12 -19 19 24 10 63 l-7 30 -1 -32z"/>
<path d="M1245 5210 c-3 -5 1 -10 9 -10 9 0 16 5 16 10 0 6 -4 10 -9 10 -6 0
-13 -4 -16 -10z"/>
<path d="M2460 5180 c0 -5 5 -10 10 -10 6 0 10 5 10 10 0 6 -4 10 -10 10 -5 0
-10 -4 -10 -10z"/>
<path d="M2715 5161 c2 -13 13 -32 24 -42 22 -21 43 -27 23 -7 -18 18 -15 25
13 32 14 4 25 10 25 14 0 7 182 -2 238 -11 15 -3 22 1 22 11 0 14 2 13 13 -1
10 -15 40 -18 201 -24 182 -6 188 -6 184 13 -6 32 -35 34 -540 37 l-207 2 4
-24z"/>
<path d="M1330 5120 c0 -6 19 -7 48 -3 64 8 66 13 4 13 -29 0 -52 -4 -52 -10z"/>
<path d="M1495 5110 c-4 -6 7 -10 24 -10 17 0 31 5 31 10 0 6 -11 10 -24 10
-14 0 -28 -4 -31 -10z"/>
<path d="M1298 5103 c7 -3 16 -2 19 1 4 3 -2 6 -13 5 -11 0 -14 -3 -6 -6z"/>
<path d="M1360 5091 c0 -28 10 -31 45 -16 27 12 27 13 8 14 -13 1 -23 6 -23
11 0 6 -7 10 -15 10 -8 0 -15 -9 -15 -19z"/>
<path d="M1208 5093 c7 -3 16 -2 19 1 4 3 -2 6 -13 5 -11 0 -14 -3 -6 -6z"/>
<path d="M1604 5088 c7 -4 49 -10 92 -13 44 -3 103 -8 133 -10 37 -3 57 0 68
10 12 13 9 15 -24 14 -21 -1 -93 1 -160 3 -68 2 -117 0 -109 -4z"/>
<path d="M1945 5090 c-3 -5 1 -10 9 -10 9 0 16 5 16 10 0 6 -4 10 -9 10 -6 0
-13 -4 -16 -10z"/>
<path d="M2040 5088 c0 -15 -80 -58 -106 -58 -8 0 -13 -4 -10 -9 7 -11 -22
-36 -31 -28 -3 4 -17 -3 -31 -13 -30 -24 -44 -26 -36 -5 4 8 1 15 -5 15 -6 0
-11 -4 -11 -10 0 -5 -25 -9 -56 -9 -30 1 -58 -2 -61 -5 -4 -3 17 -6 45 -6 30
0 52 -5 52 -11 0 -5 5 -7 10 -4 6 3 10 0 10 -7 0 -10 -11 -12 -41 -10 -35 4
-40 2 -37 -14 2 -14 -5 -20 -27 -24 -25 -5 -27 -7 -12 -13 30 -12 57 -8 57 8
0 8 6 15 14 15 8 0 21 3 30 6 27 10 19 -22 -11 -44 l-26 -19 23 -23 c19 -19
22 -30 17 -73 -4 -45 -3 -48 9 -32 13 18 14 17 15 -11 0 -27 1 -28 9 -6 5 12
14 22 19 22 5 0 12 -10 14 -22 l4 -23 2 23 c0 12 5 22 10 22 6 0 6 12 0 32
-14 51 -12 59 19 56 36 -3 60 11 41 23 -8 5 -26 9 -41 9 -22 0 -25 4 -21 23 4
17 2 19 -6 7 -16 -23 -22 -7 -7 21 7 13 11 30 8 37 -7 22 16 13 38 -15 11 -15
18 -33 16 -40 -3 -7 -1 -13 3 -13 5 0 11 7 15 15 3 8 2 15 -3 15 -16 0 -18 36
-3 50 13 12 14 10 8 -14 -6 -25 -5 -27 11 -20 10 5 50 9 88 10 99 1 104 2 85
14 -12 8 -9 10 12 10 16 0 42 13 61 30 19 17 43 30 53 31 15 0 14 3 -6 12 -14
7 -41 24 -60 39 -19 14 -53 29 -75 33 -22 4 -48 9 -57 12 -11 2 -18 -1 -18 -9z
m-181 -340 c1 -5 -3 -8 -9 -8 -5 0 -10 12 -9 28 0 24 1 25 9 7 5 -11 9 -23 9
-27z"/>
<path d="M2524 4995 c1 -23 16 -37 16 -16 0 5 3 16 6 25 4 10 1 16 -9 16 -10
0 -14 -9 -13 -25z"/>
<path d="M1572 4996 c7 -8 15 -12 17 -11 5 6 -10 25 -20 25 -5 0 -4 -6 3 -14z"/>
<path d="M2685 5000 c-3 -5 -1 -10 4 -10 6 0 11 5 11 10 0 6 -2 10 -4 10 -3 0
-8 -4 -11 -10z"/>
<path d="M4070 4979 c-43 -6 -43 -6 18 -7 61 -2 79 2 45 10 -10 2 -38 1 -63
-3z"/>
<path d="M2225 4970 c-3 -5 -1 -10 4 -10 6 0 11 5 11 10 0 6 -2 10 -4 10 -3 0
-8 -4 -11 -10z"/>
<path d="M2888 4973 c6 -2 18 -2 25 0 6 3 1 5 -13 5 -14 0 -19 -2 -12 -5z"/>
<path d="M3818 4973 c7 -3 16 -2 19 1 4 3 -2 6 -13 5 -11 0 -14 -3 -6 -6z"/>
<path d="M1585 4961 c-3 -5 -1 -12 5 -16 5 -3 10 1 10 9 0 18 -6 21 -15 7z"/>
<path d="M3915 4965 c23 -8 83 -10 79 -3 -3 4 -24 8 -47 7 -23 0 -37 -2 -32
-4z"/>
<path d="M4643 4963 c-46 -2 -83 -7 -83 -12 0 -4 -13 -6 -30 -3 -38 5 -100 -6
-100 -18 0 -6 9 -10 20 -10 12 0 49 -6 83 -14 107 -25 238 -36 317 -28 l75 8
-57 7 c-96 12 -117 30 -50 43 l37 8 -40 12 c-22 7 -51 12 -65 11 -14 -1 -62
-3 -107 -4z"/>
<path d="M1527 4954 c-3 -4 -29 -6 -57 -5 -27 0 -50 -3 -50 -8 0 -12 28 -22
34 -12 3 5 24 5 46 1 22 -4 40 -6 40 -4 0 1 3 9 6 18 6 16 -7 22 -19 10z"/>
<path d="M3340 4930 c-11 -8 -7 -9 15 -4 37 8 45 14 19 14 -10 0 -26 -5 -34
-10z"/>
<path d="M4395 4930 c3 -5 8 -10 11 -10 2 0 4 5 4 10 0 6 -5 10 -11 10 -5 0
-7 -4 -4 -10z"/>
<path d="M1585 4920 c-4 -6 8 -10 29 -10 20 0 36 5 36 10 0 6 -13 10 -29 10
-17 0 -33 -4 -36 -10z"/>
<path d="M2989 4881 c12 -8 51 -4 51 5 0 2 -15 4 -32 4 -23 0 -29 -3 -19 -9z"/>
<path d="M1631 4843 c11 -18 99 -32 99 -16 0 13 -52 33 -82 33 -24 0 -27 -2
-17 -17z"/>
<path d="M2965 4853 c-22 -3 -44 -9 -50 -14 -13 -13 76 0 90 12 5 5 7 8 5 7
-3 -1 -23 -3 -45 -5z"/>
<path d="M3260 4840 c0 -13 18 -22 24 -11 3 5 -1 11 -9 15 -8 3 -15 1 -15 -4z"/>
<path d="M4380 4840 c0 -5 5 -10 10 -10 6 0 10 5 10 10 0 6 -4 10 -10 10 -5 0
-10 -4 -10 -10z"/>
<path d="M5447 4808 c21 -7 40 -7 60 0 25 9 21 10 -32 10 -55 0 -57 -1 -28
-10z"/>
<path d="M1661 4754 c0 -11 3 -14 6 -6 3 7 2 16 -1 19 -3 4 -6 -2 -5 -13z"/>
<path d="M1465 4740 c3 -5 13 -10 21 -10 8 0 14 5 14 10 0 6 -9 10 -21 10 -11
0 -17 -4 -14 -10z"/>
<path d="M1935 4728 c4 -13 11 -27 16 -33 5 -5 4 5 -2 23 -12 36 -24 44 -14
10z"/>
<path d="M4590 4740 c0 -5 4 -10 9 -10 6 0 13 5 16 10 3 6 -1 10 -9 10 -9 0
-16 -4 -16 -10z"/>
<path d="M4508 4723 c7 -3 16 -2 19 1 4 3 -2 6 -13 5 -11 0 -14 -3 -6 -6z"/>
<path d="M5342 4710 c0 -14 2 -19 5 -12 2 6 2 18 0 25 -3 6 -5 1 -5 -13z"/>
<path d="M2660 4690 c-11 -7 -5 -10 23 -10 23 0 36 4 32 10 -8 13 -35 13 -55
0z"/>
<path d="M1562 4678 c2 -6 10 -14 16 -16 7 -2 10 2 6 12 -7 18 -28 22 -22 4z"/>
<path d="M4030 4670 c0 -5 6 -10 14 -10 8 0 18 5 21 10 3 6 -3 10 -14 10 -12
0 -21 -4 -21 -10z"/>
<path d="M5341 4654 c0 -11 3 -14 6 -6 3 7 2 16 -1 19 -3 4 -6 -2 -5 -13z"/>
<path d="M1873 4595 c0 -27 2 -38 4 -22 2 15 2 37 0 50 -2 12 -4 0 -4 -28z"/>
<path d="M4458 4633 c7 -3 16 -2 19 1 4 3 -2 6 -13 5 -11 0 -14 -3 -6 -6z"/>
<path d="M2950 4621 c0 -12 39 -35 46 -28 3 2 -7 12 -21 21 -14 9 -25 12 -25
7z"/>
<path d="M4350 4620 c0 -5 9 -10 21 -10 11 0 17 5 14 10 -3 6 -13 10 -21 10
-8 0 -14 -4 -14 -10z"/>
<path d="M4580 4622 c0 -9 81 -24 89 -16 8 8 -6 14 -47 20 -24 3 -42 2 -42 -4z"/>
<path d="M5490 4620 c0 -5 4 -10 9 -10 5 0 12 -8 14 -17 4 -17 5 -17 6 0 0 9
6 17 12 17 5 0 7 5 4 10 -3 6 -15 10 -26 10 -10 0 -19 -4 -19 -10z"/>
<path d="M5370 4600 c0 -5 9 -10 20 -10 11 0 20 5 20 10 0 6 -9 10 -20 10 -11
0 -20 -4 -20 -10z"/>
<path d="M5440 4590 c0 -5 9 -10 20 -10 11 0 20 5 20 10 0 6 -9 10 -20 10 -11
0 -20 -4 -20 -10z"/>
<path d="M5675 4560 c3 -5 8 -10 11 -10 2 0 4 5 4 10 0 6 -5 10 -11 10 -5 0
-7 -4 -4 -10z"/>
<path d="M5461 4534 c0 -11 3 -14 6 -6 3 7 2 16 -1 19 -3 4 -6 -2 -5 -13z"/>
<path d="M4183 4501 c9 -24 13 -27 24 -16 21 22 16 45 -11 45 -23 0 -24 -2
-13 -29z"/>
<path d="M3060 4498 c0 -20 -1 -20 -12 -5 -13 17 -58 14 -58 -5 0 -5 -4 -6
-10 -3 -5 3 -10 0 -10 -8 0 -16 63 -33 68 -19 1 5 25 7 52 4 41 -4 50 -2 50
12 0 9 -6 16 -12 16 -10 0 -10 2 0 9 11 7 10 10 -3 15 -9 3 -28 6 -41 6 -18 0
-24 -5 -24 -22z m17 -10 c-3 -8 -6 -5 -6 6 -1 11 2 17 5 13 3 -3 4 -12 1 -19z
m33 2 c0 -5 -4 -10 -10 -10 -5 0 -10 5 -10 10 0 6 5 10 10 10 6 0 10 -4 10
-10z"/>
<path d="M4142 4485 c-6 -22 -13 -57 -17 -77 l-6 -38 38 0 38 0 -25 21 c-14
12 -18 19 -9 16 13 -4 15 3 13 39 -1 23 -7 51 -12 61 -9 14 -12 11 -20 -22z"/>
<path d="M4257 4493 c-11 -10 -8 -63 3 -63 6 0 10 16 10 35 0 36 -2 40 -13 28z"/>
<path d="M4460 4492 c-32 -5 -52 -22 -46 -38 3 -7 -4 -29 -15 -50 -22 -44 -18
-49 53 -56 61 -7 72 1 64 46 -6 29 -11 36 -31 36 -13 0 -27 5 -30 10 -3 6 3
10 14 10 12 0 21 7 21 16 0 8 5 12 10 9 6 -3 10 0 10 8 0 14 -7 15 -50 9z"/>
<path d="M5798 4492 c-22 -4 -23 -21 -3 -28 8 -4 15 -12 15 -20 0 -8 5 -14 10
-14 6 0 10 6 10 14 0 7 10 17 23 21 22 8 22 8 -3 12 -14 3 -27 8 -30 12 -3 4
-13 5 -22 3z"/>
<path d="M4001 4474 c0 -11 3 -14 6 -6 3 7 2 16 -1 19 -3 4 -6 -2 -5 -13z"/>
<path d="M3128 4433 c7 -3 16 -2 19 1 4 3 -2 6 -13 5 -11 0 -14 -3 -6 -6z"/>
<path d="M3470 4425 c-10 -12 -10 -15 3 -15 19 0 31 16 18 24 -5 3 -14 -1 -21
-9z"/>
<path d="M4366 4427 c3 -10 9 -15 12 -12 3 3 0 11 -7 18 -10 9 -11 8 -5 -6z"/>
<path d="M4310 4419 c0 -5 4 -8 9 -4 5 3 12 -4 16 -15 7 -23 25 -27 25 -5 0 8
-9 19 -19 25 -25 13 -31 13 -31 -1z"/>
<path d="M3300 4410 c0 -5 9 -10 21 -10 11 0 17 5 14 10 -3 6 -13 10 -21 10
-8 0 -14 -4 -14 -10z"/>
<path d="M4932 4396 c-11 -24 -10 -24 26 -19 63 8 70 12 48 29 -30 22 -61 17
-74 -10z"/>
<path d="M5370 4410 c0 -5 16 -10 36 -10 21 0 33 4 29 10 -3 6 -19 10 -36 10
-16 0 -29 -4 -29 -10z"/>
<path d="M3165 4400 c-3 -5 3 -10 15 -10 12 0 18 5 15 10 -3 6 -10 10 -15 10
-5 0 -12 -4 -15 -10z"/>
<path d="M3485 4389 c4 -6 -1 -17 -11 -24 -18 -14 -18 -14 6 -15 19 0 26 5 26
20 0 11 -6 22 -14 25 -7 3 -10 0 -7 -6z"/>
<path d="M3530 4380 c20 -13 40 -13 40 0 0 6 -12 10 -27 10 -22 0 -25 -2 -13
-10z"/>
<path d="M5069 4379 c-22 -13 -2 -22 28 -12 25 9 26 10 6 15 -11 3 -27 2 -34
-3z"/>
<path d="M4225 4370 c3 -5 8 -10 11 -10 2 0 4 5 4 10 0 6 -5 10 -11 10 -5 0
-7 -4 -4 -10z"/>
<path d="M3041 4341 c-9 -6 -10 -11 -2 -15 6 -4 9 -12 6 -17 -10 -16 4 -10 24
10 17 17 17 20 4 25 -18 7 -15 7 -32 -3z"/>
<path d="M3360 4340 c-12 -8 -10 -10 8 -10 13 0 20 4 17 10 -7 12 -6 12 -25 0z"/>
<path d="M3830 4340 c-13 -8 -12 -10 3 -10 9 0 17 5 17 10 0 12 -1 12 -20 0z"/>
<path d="M3715 4330 c-17 -6 -16 -8 9 -14 17 -4 33 -3 39 3 6 6 9 11 7 12 -3
0 -12 2 -20 3 -8 2 -24 0 -35 -4z"/>
<path d="M2932 4321 c-11 -6 -10 -9 5 -13 22 -6 43 0 43 13 0 11 -31 12 -48 0z"/>
<path d="M3800 4310 c-11 -7 -7 -10 18 -10 17 0 32 5 32 10 0 13 -30 13 -50 0z"/>
<path d="M3730 4285 c-22 -12 -22 -12 15 -19 21 -4 46 -13 57 -19 15 -10 21
-9 28 3 15 23 12 40 -5 34 -8 -3 -27 -2 -43 4 -20 7 -35 6 -52 -3z"/>
</g>
</svg>
